<svg width="81" height="54" viewBox="0 0 81 54" fill="none" xmlns="http://www.w3.org/2000/svg">
<path d="M5.0625 8.4888C9.54281 6.98567 15.9671 5.36474 22.2143 4.86099C28.9474 4.31661 34.6579 5.11692 37.9688 7.91599V47.5091C33.2353 45.356 27.2363 45.0594 21.7029 45.5063C15.7292 45.9938 9.70481 47.3791 5.0625 48.801V8.4888ZM43.0312 7.91599C46.3421 5.11692 52.0526 4.31661 58.7858 4.86099C65.0329 5.36474 71.4572 6.98567 75.9375 8.4888V48.801C71.2901 47.3791 65.2708 45.9897 59.2971 45.5104C53.7587 45.0594 47.7647 45.3519 43.0312 47.5091V7.91599ZM40.5 4.24349C35.5134 0.80255 28.2842 0.290675 21.7029 0.8188C14.0383 1.44036 6.30281 3.5488 1.48331 5.30786C1.0411 5.46926 0.6661 5.72936 0.403081 6.05712C0.140063 6.38488 0.000134518 6.76646 0 7.1563L0 51.8438C0.000117258 52.1837 0.106501 52.5181 0.309405 52.8164C0.51231 53.1147 0.80525 53.3674 1.16139 53.5513C1.51753 53.7353 1.92549 53.8445 2.3479 53.8692C2.77031 53.8938 3.19367 53.8329 3.57919 53.6922C8.04431 52.0672 15.2381 50.1132 22.2092 49.5485C29.3423 48.9716 35.3211 49.9019 38.5256 53.1113C38.7628 53.3485 39.0634 53.54 39.4051 53.6716C39.7468 53.8031 40.121 53.8714 40.5 53.8714C40.879 53.8714 41.2532 53.8031 41.5949 53.6716C41.9366 53.54 42.2372 53.3485 42.4744 53.1113C45.6789 49.9019 51.6578 48.9716 58.7858 49.5485C65.7619 50.1132 72.9608 52.0672 77.4208 53.6922C77.8063 53.8329 78.2297 53.8938 78.6521 53.8692C79.0745 53.8445 79.4825 53.7353 79.8386 53.5513C80.1947 53.3674 80.4877 53.1147 80.6906 52.8164C80.8935 52.5181 80.9999 52.1837 81 51.8438V7.1563C80.9999 6.76646 80.8599 6.38488 80.5969 6.05712C80.3339 5.72936 79.9589 5.46926 79.5167 5.30786C74.6972 3.5488 66.9617 1.44036 59.2971 0.8188C52.7158 0.286612 45.4866 0.80255 40.5 4.24349Z" fill="url(#paint0_linear_2_14)"/>
<defs>
<linearGradient id="paint0_linear_2_14" x1="40.5" y1="0.639526" x2="40.5" y2="53.8745" gradientUnits="userSpaceOnUse">
<stop stop-color="#FFD9D2"/>
<stop offset="1" stop-color="#8E63D5"/>
</linearGradient>
</defs>
</svg>
